<svg width="600" height="300" viewBox="0 0 600 300" fill="none" xmlns="http://www.w3.org/2000/svg">
<g clip-path="url(#clip0_316_546)">
<rect width="600" height="300" fill="#FAF9FB"/>
<path d="M-78.9518 276.814C-133.931 257.906 -156.798 105.14 -160.115 12.1301C-23.2255 -85.3501 277.468 -195.568 385.123 143.4C382.571 269.332 70.9896 328.38 -78.9518 276.814Z" fill="#F5B000" fill-opacity="0.07" style="mix-blend-mode:darken"/>
<path d="M300 127C188 150 192.333 250.041 188 302.541L434 468.041C530.5 443.541 567.573 322.739 508.5 246C455 176.5 375.483 111.499 300 127Z" fill="#3D74DB" fill-opacity="0.07" style="mix-blend-mode:darken"/>
<path d="M353 173C323.666 150.266 341.333 53.3333 358.5 -3.5C461.333 -34.1667 665.8 -38.8 661 188C633.5 263.5 433 235 353 173Z" fill="#EF4D79" fill-opacity="0.09" style="mix-blend-mode:darken"/>
<path d="M457.724 142C455.235 141.981 452.824 141.134 450.87 139.593C448.911 138.036 447.541 135.858 446.985 133.419C446.43 130.98 446.722 128.424 447.813 126.172L466.802 86.4649L443.923 71.5629C442.767 70.7483 441.814 69.68 441.135 68.4401C440.457 67.2001 440.072 65.8215 440.009 64.4097C439.946 62.998 440.208 61.5906 440.774 60.2956C441.34 59.0006 442.195 57.8523 443.274 56.9387L521.267 -3.68719C523.233 -5.21123 525.656 -6.02612 528.144 -5.99936C530.631 -5.97261 533.037 -5.10578 534.969 -3.53983C536.901 -1.97387 538.246 0.199122 538.785 2.62583C539.325 5.05255 539.027 7.59026 537.94 9.82637L518.859 49.4414L541.923 64.621C543.117 65.4251 544.108 66.4962 544.815 67.7494C545.523 69.0027 545.928 70.4035 545.999 71.8406C546.021 73.2621 545.714 74.6694 545.104 75.9536C544.494 77.2377 543.595 78.3641 542.479 79.2453L464.486 139.593C462.579 141.153 460.189 142.004 457.724 142ZM457.261 63.6029L479.492 78.042C480.986 78.9977 482.07 80.4755 482.533 82.1869C482.995 83.8984 482.803 85.7206 481.993 87.2979L465.505 121.267L528.585 72.4885L505.798 57.8643C504.286 56.9241 503.193 55.4394 502.745 53.7168C502.296 51.9943 502.527 50.1656 503.39 48.6084L519.878 14.2692L457.261 63.6029Z" fill="#EF4D79"/>
<g clip-path="url(#clip1_316_546)">
<path d="M135.453 202.3C134.618 201.751 133.782 201.202 133.495 199.817L109.924 159.204L63.5773 155.079C60.5209 154.267 58.0136 152.62 57.4402 149.851C56.8668 147.081 57.6783 144.024 58.7764 142.353L90.7202 108.3L80.4237 62.051C79.8503 59.2813 80.6618 56.2249 83.1448 54.2667C85.6278 52.3084 88.3975 51.735 90.9048 53.3823L133.194 72.7895L173.806 49.2179C179.059 46.6863 185.745 51.0789 184.671 56.3559L179.161 102.989L213.763 134.097C216.27 135.744 216.844 138.514 216.032 141.57C215.221 144.627 212.738 146.585 209.968 147.158L164.817 155.783L146.246 198.621C144.598 201.129 142.115 203.087 139.895 202.825C137.961 203.947 136.289 202.849 135.453 202.3ZM118.709 145.832C119.545 146.381 120.38 146.93 120.667 148.315L137.791 178.709L151.994 146.162C153.092 144.491 154.739 141.983 157.509 141.41L192.13 134.243L165.91 112.231C164.239 111.133 163.665 108.363 163.092 105.593L168.126 70.6126L137.183 88.572C135.249 89.6944 132.48 90.2678 130.808 89.1697L98.8106 74.1307L105.978 108.752C106.551 111.522 106.289 113.742 103.806 115.701L79.5735 141.658L114.268 145.307C116.202 144.185 117.873 145.283 118.709 145.832Z" fill="#F5B000"/>
</g>
<path d="M130.96 47.5974C132.019 35.4758 134.868 7.78614 137.784 -5.99999" stroke="#F5B000" stroke-width="10" stroke-linecap="round"/>
<path d="M63.6483 98.8998C52.9798 93.0485 28.7816 79.2905 17.3369 71.07" stroke="#F5B000" stroke-width="10" stroke-linecap="round"/>
<path d="M214 90.5C225.833 87.6667 253 81.6 267 80" stroke="#F5B000" stroke-width="10" stroke-linecap="round"/>
<path d="M180 175.073C188.198 184.065 206.636 204.919 214.801 216.403" stroke="#F5B000" stroke-width="10" stroke-linecap="round"/>
<path d="M94.6509 179C85.8978 187.452 65.5802 206.479 54.3343 214.97" stroke="#F5B000" stroke-width="10" stroke-linecap="round"/>
<g clip-path="url(#clip2_316_546)">
<path d="M273.05 298C271.762 298.003 270.513 297.552 269.525 296.725C268.584 296.026 267.889 295.047 267.539 293.929C267.189 292.811 267.201 291.611 267.575 290.5L274.55 261.1C269.041 252.804 266.07 243.083 266 233.125C266 203.125 292.925 178.375 326 178.375C359.075 178.375 386 202.975 386 233.125C386 263.275 359.075 287.8 326 287.8C318.023 287.807 310.114 286.332 302.675 283.45L275.525 297.025C274.783 297.531 273.938 297.864 273.05 298ZM284.975 256.9C285.531 257.568 285.923 258.357 286.118 259.204C286.313 260.05 286.307 260.931 286.1 261.775L281 281.575L299.675 272.275C300.413 271.922 301.22 271.739 302.037 271.739C302.855 271.739 303.662 271.922 304.4 272.275C311.217 275.211 318.579 276.668 326 276.55C352.85 276.55 374.75 257.05 374.75 233.125C374.75 209.2 352.85 189.625 326 189.625C299.15 189.625 277.25 209.125 277.25 233.125C277.292 241.545 279.996 249.735 284.975 256.525V256.9Z" fill="#3D74DB"/>
</g>
</g>
<defs>
<clipPath id="clip0_316_546">
<rect width="600" height="300" fill="white"/>
</clipPath>
<clipPath id="clip1_316_546">
<rect width="160" height="160" fill="white" transform="translate(114.853 6) rotate(33.3039)"/>
</clipPath>
<clipPath id="clip2_316_546">
<rect width="120" height="120" fill="white" transform="translate(266 178)"/>
</clipPath>
</defs>
</svg>
